<svg version="1" xmlns="http://www.w3.org/2000/svg" viewBox="0 0 495 495"><path d="M496 248a248 248 0 1 0-496 0 248 248 0 0 0 496 0z" fill="#25b7d3"/><g fill="#fff"><path d="M315 360c-1-2-4-3-6-2a584 584 0 0 1-59 24l-1-4c0-14 11-56 31-126 18-58 20-70 20-74 0-6-2-12-7-15-4-4-10-6-18-6-12 0-27 5-44 15-17 9-35 25-55 47a5 5 0 0 0 5 8 826 826 0 0 0 59-23c0 3 0 6-2 10-30 98-44 158-44 183 0 9 2 17 7 22s12 8 20 8c9 0 20-4 33-11 13-8 33-24 61-50 1-2 2-4 0-6zM314 77c-5-5-11-8-18-8-10 0-18 4-25 11-6 7-10 16-10 26 0 8 3 15 8 20s11 8 18 8c9 0 17-4 24-12 7-7 11-16 11-26 0-8-3-14-8-19z"/></g></svg>
