<svg viewBox="0 0 495 495"  xmlns="http://www.w3.org/2000/svg"><path d="M75 328c-3 6-2 13 3 17l3 4 38-41 3-3-23-23-24 46zm0 0M204 393l-41 38 5 5c4 4 12 5 17 2 8-4 20-9 46-24l-24-24-3 3zm0 0M196 316c-11-11-41-1-56 13-48 48-69 82-79 102a15 15 0 0 0 20 20c20-9 53-31 102-79 16-16 23-46 13-56zm0 0M47 200L4 242a15 15 0 0 0 15 25c23-6 43-9 57-5 19-34 40-66 62-95-13-8-55-3-91 33zm0 0M254 510c6 3 13 2 17-2l43-43c33-33 38-75 31-89-32 25-65 45-95 62 2 12 1 23-4 57-1 6 2 13 8 15zm0 0M298 150a45 45 0 1 0 64 64 45 45 0 0 0-64-64zm0 0M511 15c0-8-6-14-14-14-37-3-73 2-109 13 2 24 15 51 37 73s50 35 75 37c9-34 14-70 11-109zm0 0"/><path d="M404 108c-25-25-40-55-45-84a544 544 0 0 0-245 231l34 34c23-10 51-12 69 6s16 46 6 69l35 35c87-53 189-136 232-246-30-4-61-20-86-45zm-21 127a75 75 0 1 1-106-106 75 75 0 0 1 106 106zm0 0"/></svg>
